<svg xmlns="http://www.w3.org/2000/svg" fill="#fc580c" height="48" viewBox="0 -960 960 960" width="48"><path d="M155.615-153.692q-7.154-6.154-7.154-15t7.154-16l400-400q-22-48.308-10.154-96.539 11.847-48.231 54.231-91.154 39.77-38.769 100.5-54.5 60.731-15.73 101.193 24.731 40.461 39.692 25.115 101.192-15.346 61.5-55.577 102.731-40.461 40.923-88.961 52.385-48.5 11.461-95.116-8.077L513-479.077l294.385 294.385q7.154 7.154 7.154 16t-7.154 15q-6.385 7.154-15.116 7.154t-15.115-7.154L482-447.308 186.615-153.692q-7.153 7.154-15.884 7.154-8.731 0-15.116-7.154Zm141.77-330.769-114.539-113.77q-40.077-39.077-48.731-91.615-8.654-52.539 13.423-100.385 6.693-13.692 22.731-15.077 16.039-1.384 29.5 10.308l204.077 204.077-106.461 106.462Z"/></svg>